# xmcd CD database file
#
# Track frame offsets:
#	150
#	32243
#	44801
#	67352
#	82235
#	96216
#	122570
#	134114
#	160335
#	176843
#	201301
#
# Disc length: 3120 seconds
#
# Revision: 0
# Processed by: cddbd v1.5.2PL0 Copyright (c) Steve Scherf et al.
# Submitted via: CDex 1.70beta2
#
DISCID=b40c2e0b
DTITLE=Moore Gary - Close as you get
DYEAR=2007
DGENRE=Blues
TTITLE0=If the devil made whisky
TTITLE1=Trouble at home
TTITLE2=Thirty days
TTITLE3=Hard times
TTITLE4=Have you heard
TTITLE5=Eyesight to the blind
TTITLE6=Evenin
TTITLE7=Nowhere fast
TTITLE8=Checkin up my baby
TTITLE9=I had a dream
TTITLE10=Sundown
EXTD=YEAR: 2007
EXTT0=
EXTT1=
EXTT2=
EXTT3=
EXTT4=
EXTT5=
EXTT6=
EXTT7=
EXTT8=
EXTT9=
EXTT10=
PLAYORDER=
